<svg xmlns="http://www.w3.org/2000/svg" width="137.9" height="90" viewBox="0 0 196 118">
  <g transform="matrix(1.454936,0,0,1.454936,-49.87195,-29.51927)">
    <path d="M166.6 19C162.9 19 156.9 19.3 155.8 19.3 155.7 19.3 149.7 19 144.8 19 143.5 19 142.8 19.2 142.8 19.9 142.8 20.5 143.4 20.7 144.5 20.7 145.5 20.7 147.1 20.8 147.9 21 151 21.7 151.8 23.2 152 26.4 152.2 29.5 152.2 32.1 152.2 46.6L152.2 58.5C152.2 68.3 151.9 76.9 146.7 82.1 142.8 85.9 137.7 87.2 133.5 87.2 130.3 87.2 125.9 86.8 121.6 83.3 117 79.5 114.2 73.7 114.2 59.9L114.2 46.6C114.2 32.1 114.2 29.5 114.4 26.4 114.6 23.1 115.4 21.5 117.9 21 119.1 20.8 119.6 20.7 120.7 20.7 121.6 20.7 122.2 20.5 122.2 19.9 122.2 19.2 121.5 19 120.1 19 116.7 19 110.7 19.3 108.4 19.3L90.1 19.3C87.5 19.3 82.3 19 80.3 19 79.3 19 78.8 19.2 78.8 19.9 78.8 20.4 79.2 20.6 80 20.8 81 21 81.4 21.7 81.4 22.7 81.4 24.4 79.3 26.7 76.6 29.9 73.8 33.1 59.9 47.3 56.6 50.9L56.2 50.9 56.2 46.7C56.2 32.2 56.2 29.5 56.4 26.5 56.5 23.1 57.3 21.5 59.9 21 61 20.8 61.6 20.7 62.6 20.7 63.3 20.7 63.9 20.5 63.9 19.9 63.9 19.2 63.2 19 61.9 19 58.6 19 52.6 19.3 50.3 19.3 48.1 19.3 42 19 37 19 35.6 19 34.9 19.2 34.9 19.9 34.9 20.5 35.5 20.7 36.5 20.7 37.8 20.7 39.5 20.8 40.2 21 43.4 21.7 44.1 23.2 44.3 26.5 44.5 29.5 44.5 32.2 44.5 46.7L44.5 63.5C44.5 72.2 44.5 79.8 44.1 83.8 43.7 86.5 43.2 88.6 41.3 89 40.4 89.2 39.3 89.4 37.8 89.4 36.7 89.4 36.3 89.7 36.3 90.2 36.3 90.8 37 91.1 38.2 91.1 42 91.1 48.1 90.8 50.3 90.8 52.6 90.8 58.6 91.1 64 91.1 65 91.1 65.8 90.8 65.8 90.2 65.8 89.7 65.3 89.4 64.6 89.4 63.3 89.4 61.2 89.2 59.9 89 57.5 88.6 56.6 86.5 56.5 83.9 56.2 79.8 56.2 72.2 56.2 63.5L56.2 54.8 56.6 54.8 57.7 56.2 95.2 97.6C99.3 101.2 101.9 103.3 107 103.8 109 104 110.7 104 113.6 104L121.9 104C123.7 104 124.2 103.7 124.2 103.1 124.2 102.5 123.6 102.3 122.9 102.3 121.8 102.3 119.5 101.6 116.6 100.4 111.8 98.6 107.3 94.7 103.5 91L92.4 79 65 49.5C68.3 46.1 82.6 31.7 85.6 28.9 90.6 24.4 94.8 21 97.8 21 100.7 21 101.7 23.2 101.8 26.4 102 29.5 102 32.1 102 46.6L102 60.5C102 74.3 105.6 81.3 110.5 85.7 117.4 92 126.6 92.3 131.6 92.3 137.8 92.3 144.7 91.2 151.4 85.4 159.4 78.6 160.4 67.3 160.4 56.8L160.4 46.6C160.4 32.1 160.4 29.5 160.6 26.4 160.8 23.1 161.6 21.5 164.2 21 165.3 20.8 165.9 20.7 166.9 20.7 168.1 20.7 168.6 20.5 168.6 19.9 168.6 19.2 168 19 166.6 19L166.6 19z" fill="#0051BA"/>
</g></svg>